<mxfile modified="2019-12-10T10:16:50.297Z" host="www.draw.io" agent="Mozilla/5.0 (Macintosh; Intel Mac OS X 10_14_6) AppleWebKit/537.36 (KHTML, like Gecko) Chrome/78.0.3904.108 Safari/537.36" etag="swcqssL_mEJ3k3x_udg9" version="12.3.9" type="github" pages="1">
  <diagram id="J8xc-H_sa1UZDvFkI347" name="Page-1">
    <mxGraphModel dx="2276" dy="722" grid="1" gridSize="10" guides="1" tooltips="1" connect="1" arrows="1" fold="1" page="1" pageScale="1" pageWidth="850" pageHeight="1100" math="0" shadow="0">
      <root>
        <mxCell id="0"/>
        <mxCell id="1" parent="0"/>
        <mxCell id="8LaYWBTpPzUXE6OAJdE9-2" value="" style="rounded=0;whiteSpace=wrap;html=1;fillColor=#f5f5f5;strokeColor=#666666;fontColor=#333333;" parent="1" vertex="1">
          <mxGeometry x="-70" y="50" width="900" height="560" as="geometry"/>
        </mxCell>
        <mxCell id="8LaYWBTpPzUXE6OAJdE9-65" value="" style="rounded=0;whiteSpace=wrap;html=1;dashed=1;" parent="1" vertex="1">
          <mxGeometry x="280" y="210" width="220" height="180" as="geometry"/>
        </mxCell>
        <mxCell id="8LaYWBTpPzUXE6OAJdE9-58" value="" style="ellipse;whiteSpace=wrap;html=1;rounded=1;dashed=1;fillColor=#e1d5e7;strokeColor=#9673a6;" parent="1" vertex="1">
          <mxGeometry x="260" y="440" width="380" height="140" as="geometry"/>
        </mxCell>
        <mxCell id="8LaYWBTpPzUXE6OAJdE9-6" value="SERVER" style="rounded=1;whiteSpace=wrap;html=1;fillColor=#f8cecc;strokeColor=#b85450;" parent="1" vertex="1">
          <mxGeometry x="-27" y="70" width="80" height="40" as="geometry"/>
        </mxCell>
        <mxCell id="8LaYWBTpPzUXE6OAJdE9-7" value="RUST-SDK" style="rounded=1;whiteSpace=wrap;html=1;fillColor=#f8cecc;strokeColor=#b85450;" parent="1" vertex="1">
          <mxGeometry x="351" y="70" width="80" height="40" as="geometry"/>
        </mxCell>
        <mxCell id="8LaYWBTpPzUXE6OAJdE9-8" value="ClIENT" style="rounded=1;whiteSpace=wrap;html=1;fillColor=#f8cecc;strokeColor=#b85450;" parent="1" vertex="1">
          <mxGeometry x="723" y="70" width="80" height="40" as="geometry"/>
        </mxCell>
        <mxCell id="8LaYWBTpPzUXE6OAJdE9-76" style="edgeStyle=orthogonalEdgeStyle;rounded=0;orthogonalLoop=1;jettySize=auto;html=1;exitX=0;exitY=0.25;exitDx=0;exitDy=0;entryX=1;entryY=0.25;entryDx=0;entryDy=0;" parent="1" source="8LaYWBTpPzUXE6OAJdE9-9" target="8LaYWBTpPzUXE6OAJdE9-74" edge="1">
          <mxGeometry relative="1" as="geometry"/>
        </mxCell>
        <mxCell id="8LaYWBTpPzUXE6OAJdE9-77" value="ACK" style="text;html=1;resizable=0;points=[];align=center;verticalAlign=middle;labelBackgroundColor=#ffffff;" parent="8LaYWBTpPzUXE6OAJdE9-76" vertex="1" connectable="0">
          <mxGeometry x="0.424" y="-2" relative="1" as="geometry">
            <mxPoint as="offset"/>
          </mxGeometry>
        </mxCell>
        <mxCell id="8LaYWBTpPzUXE6OAJdE9-82" style="edgeStyle=orthogonalEdgeStyle;rounded=0;orthogonalLoop=1;jettySize=auto;html=1;exitX=0.5;exitY=1;exitDx=0;exitDy=0;entryX=0.5;entryY=0;entryDx=0;entryDy=0;" parent="1" source="8LaYWBTpPzUXE6OAJdE9-9" target="8LaYWBTpPzUXE6OAJdE9-12" edge="1">
          <mxGeometry relative="1" as="geometry"/>
        </mxCell>
        <mxCell id="8LaYWBTpPzUXE6OAJdE9-9" value="PUSH" style="rounded=1;whiteSpace=wrap;html=1;fillColor=#d5e8d4;strokeColor=#82b366;" parent="1" vertex="1">
          <mxGeometry x="360.5" y="150" width="60" height="40" as="geometry"/>
        </mxCell>
        <mxCell id="OoqCZXZGzTTgk1bZP4qL-2" style="edgeStyle=orthogonalEdgeStyle;rounded=0;orthogonalLoop=1;jettySize=auto;html=1;exitX=1;exitY=0.5;exitDx=0;exitDy=0;entryX=0;entryY=0.5;entryDx=0;entryDy=0;" parent="1" source="8LaYWBTpPzUXE6OAJdE9-10" target="8LaYWBTpPzUXE6OAJdE9-12" edge="1">
          <mxGeometry relative="1" as="geometry"/>
        </mxCell>
        <mxCell id="8LaYWBTpPzUXE6OAJdE9-10" value="PULL&lt;br&gt;Resp" style="rounded=1;whiteSpace=wrap;html=1;fillColor=#d5e8d4;strokeColor=#82b366;" parent="1" vertex="1">
          <mxGeometry x="195" y="230" width="60" height="40" as="geometry"/>
        </mxCell>
        <mxCell id="8LaYWBTpPzUXE6OAJdE9-17" style="edgeStyle=orthogonalEdgeStyle;rounded=0;orthogonalLoop=1;jettySize=auto;html=1;exitX=0.5;exitY=1;exitDx=0;exitDy=0;entryX=0.5;entryY=0;entryDx=0;entryDy=0;" parent="1" source="8LaYWBTpPzUXE6OAJdE9-12" target="8LaYWBTpPzUXE6OAJdE9-25" edge="1">
          <mxGeometry relative="1" as="geometry">
            <mxPoint x="391" y="239" as="targetPoint"/>
          </mxGeometry>
        </mxCell>
        <mxCell id="8LaYWBTpPzUXE6OAJdE9-12" value="Receive Packet" style="rounded=1;whiteSpace=wrap;html=1;fillColor=#dae8fc;strokeColor=#6c8ebf;" parent="1" vertex="1">
          <mxGeometry x="331" y="230" width="120" height="40" as="geometry"/>
        </mxCell>
        <mxCell id="8LaYWBTpPzUXE6OAJdE9-27" style="edgeStyle=orthogonalEdgeStyle;rounded=0;orthogonalLoop=1;jettySize=auto;html=1;exitX=0.5;exitY=1;exitDx=0;exitDy=0;entryX=0.5;entryY=0;entryDx=0;entryDy=0;" parent="1" source="8LaYWBTpPzUXE6OAJdE9-25" target="8LaYWBTpPzUXE6OAJdE9-31" edge="1">
          <mxGeometry relative="1" as="geometry">
            <mxPoint x="391" y="460" as="targetPoint"/>
          </mxGeometry>
        </mxCell>
        <mxCell id="8LaYWBTpPzUXE6OAJdE9-28" value="Trigger" style="text;html=1;resizable=0;points=[];align=center;verticalAlign=middle;labelBackgroundColor=#ffffff;" parent="8LaYWBTpPzUXE6OAJdE9-27" vertex="1" connectable="0">
          <mxGeometry x="-0.2105" y="-1" relative="1" as="geometry">
            <mxPoint y="6" as="offset"/>
          </mxGeometry>
        </mxCell>
        <mxCell id="8LaYWBTpPzUXE6OAJdE9-25" value="Map&amp;lt;pre_sid, packet&amp;gt;" style="ellipse;whiteSpace=wrap;html=1;rounded=1;fillColor=#ffe6cc;strokeColor=#d79b00;" parent="1" vertex="1">
          <mxGeometry x="320.5" y="306" width="141" height="52" as="geometry"/>
        </mxCell>
        <mxCell id="OoqCZXZGzTTgk1bZP4qL-1" style="edgeStyle=orthogonalEdgeStyle;rounded=0;orthogonalLoop=1;jettySize=auto;html=1;exitX=0;exitY=0.5;exitDx=0;exitDy=0;entryX=1;entryY=0;entryDx=0;entryDy=0;" parent="1" source="8LaYWBTpPzUXE6OAJdE9-29" target="8LaYWBTpPzUXE6OAJdE9-31" edge="1">
          <mxGeometry relative="1" as="geometry"/>
        </mxCell>
        <mxCell id="8LaYWBTpPzUXE6OAJdE9-29" value="LAST_SID" style="shape=cylinder;whiteSpace=wrap;html=1;boundedLbl=1;backgroundOutline=1;rounded=1;fillColor=#ffe6cc;strokeColor=#d79b00;" parent="1" vertex="1">
          <mxGeometry x="509" y="371" width="60" height="66" as="geometry"/>
        </mxCell>
        <mxCell id="8LaYWBTpPzUXE6OAJdE9-50" style="edgeStyle=orthogonalEdgeStyle;curved=1;rounded=0;orthogonalLoop=1;jettySize=auto;html=1;exitX=1;exitY=0.5;exitDx=0;exitDy=0;entryX=0;entryY=0.5;entryDx=0;entryDy=0;" parent="1" source="8LaYWBTpPzUXE6OAJdE9-31" target="8LaYWBTpPzUXE6OAJdE9-49" edge="1">
          <mxGeometry relative="1" as="geometry"/>
        </mxCell>
        <mxCell id="8LaYWBTpPzUXE6OAJdE9-68" style="edgeStyle=orthogonalEdgeStyle;rounded=0;orthogonalLoop=1;jettySize=auto;html=1;exitX=0;exitY=0.5;exitDx=0;exitDy=0;entryX=0.5;entryY=1;entryDx=0;entryDy=0;" parent="1" source="8LaYWBTpPzUXE6OAJdE9-31" target="8LaYWBTpPzUXE6OAJdE9-62" edge="1">
          <mxGeometry relative="1" as="geometry"/>
        </mxCell>
        <mxCell id="8LaYWBTpPzUXE6OAJdE9-69" value="No" style="text;html=1;resizable=0;points=[];align=center;verticalAlign=middle;labelBackgroundColor=#ffffff;" parent="8LaYWBTpPzUXE6OAJdE9-68" vertex="1" connectable="0">
          <mxGeometry x="-0.854" y="-1" relative="1" as="geometry">
            <mxPoint as="offset"/>
          </mxGeometry>
        </mxCell>
        <mxCell id="8LaYWBTpPzUXE6OAJdE9-31" value="PRE_SID in map?" style="rhombus;whiteSpace=wrap;html=1;fillColor=#fff2cc;strokeColor=#d6b656;" parent="1" vertex="1">
          <mxGeometry x="331" y="480" width="120" height="50" as="geometry"/>
        </mxCell>
        <mxCell id="8LaYWBTpPzUXE6OAJdE9-51" style="edgeStyle=orthogonalEdgeStyle;curved=1;rounded=0;orthogonalLoop=1;jettySize=auto;html=1;exitX=0.5;exitY=0;exitDx=0;exitDy=0;entryX=0.5;entryY=1;entryDx=0;entryDy=0;" parent="1" source="8LaYWBTpPzUXE6OAJdE9-49" target="8LaYWBTpPzUXE6OAJdE9-29" edge="1">
          <mxGeometry relative="1" as="geometry"/>
        </mxCell>
        <mxCell id="8LaYWBTpPzUXE6OAJdE9-52" value="Update&amp;nbsp;" style="text;html=1;resizable=0;points=[];align=center;verticalAlign=middle;labelBackgroundColor=#ffffff;" parent="8LaYWBTpPzUXE6OAJdE9-51" vertex="1" connectable="0">
          <mxGeometry x="0.0714" y="-1" relative="1" as="geometry">
            <mxPoint as="offset"/>
          </mxGeometry>
        </mxCell>
        <mxCell id="8LaYWBTpPzUXE6OAJdE9-56" style="edgeStyle=none;rounded=0;orthogonalLoop=1;jettySize=auto;html=1;exitX=1;exitY=0.5;exitDx=0;exitDy=0;" parent="1" source="8LaYWBTpPzUXE6OAJdE9-49" edge="1">
          <mxGeometry relative="1" as="geometry">
            <mxPoint x="660" y="505" as="targetPoint"/>
          </mxGeometry>
        </mxCell>
        <mxCell id="8LaYWBTpPzUXE6OAJdE9-57" value="PUSH" style="text;html=1;resizable=0;points=[];align=center;verticalAlign=middle;labelBackgroundColor=#ffffff;" parent="8LaYWBTpPzUXE6OAJdE9-56" vertex="1" connectable="0">
          <mxGeometry x="-0.075" relative="1" as="geometry">
            <mxPoint as="offset"/>
          </mxGeometry>
        </mxCell>
        <mxCell id="8LaYWBTpPzUXE6OAJdE9-49" value="Handle" style="rounded=1;whiteSpace=wrap;html=1;fillColor=#dae8fc;strokeColor=#6c8ebf;" parent="1" vertex="1">
          <mxGeometry x="500" y="485" width="80" height="40" as="geometry"/>
        </mxCell>
        <mxCell id="8LaYWBTpPzUXE6OAJdE9-55" value="" style="endArrow=none;dashed=1;html=1;exitX=0.75;exitY=1;exitDx=0;exitDy=0;" parent="1" edge="1">
          <mxGeometry width="50" height="50" relative="1" as="geometry">
            <mxPoint x="702.5" y="610" as="sourcePoint"/>
            <mxPoint x="703" y="50" as="targetPoint"/>
          </mxGeometry>
        </mxCell>
        <mxCell id="8LaYWBTpPzUXE6OAJdE9-59" value="Loop" style="text;html=1;strokeColor=none;fillColor=none;align=center;verticalAlign=middle;whiteSpace=wrap;rounded=0;dashed=1;" parent="1" vertex="1">
          <mxGeometry x="420.5" y="540" width="59" height="30" as="geometry"/>
        </mxCell>
        <mxCell id="8LaYWBTpPzUXE6OAJdE9-60" value="" style="endArrow=none;dashed=1;html=1;" parent="1" edge="1">
          <mxGeometry width="50" height="50" relative="1" as="geometry">
            <mxPoint x="160" y="610" as="sourcePoint"/>
            <mxPoint x="160" y="48" as="targetPoint"/>
          </mxGeometry>
        </mxCell>
        <mxCell id="8LaYWBTpPzUXE6OAJdE9-61" value="push&amp;nbsp; queue" style="shape=step;perimeter=stepPerimeter;whiteSpace=wrap;html=1;fixedSize=1;rounded=0;fillColor=#ffe6cc;strokeColor=#d79b00;" parent="1" vertex="1">
          <mxGeometry x="643" y="484" width="120" height="40" as="geometry"/>
        </mxCell>
        <mxCell id="8LaYWBTpPzUXE6OAJdE9-64" style="edgeStyle=none;rounded=0;orthogonalLoop=1;jettySize=auto;html=1;exitX=1;exitY=0.5;exitDx=0;exitDy=0;entryX=0;entryY=0.5;entryDx=0;entryDy=0;" parent="1" source="8LaYWBTpPzUXE6OAJdE9-62" target="8LaYWBTpPzUXE6OAJdE9-10" edge="1">
          <mxGeometry relative="1" as="geometry"/>
        </mxCell>
        <mxCell id="8LaYWBTpPzUXE6OAJdE9-62" value="Storage" style="shape=cylinder;whiteSpace=wrap;html=1;boundedLbl=1;backgroundOutline=1;rounded=0;fillColor=#fff2cc;strokeColor=#d6b656;" parent="1" vertex="1">
          <mxGeometry x="-17" y="209" width="60" height="80" as="geometry"/>
        </mxCell>
        <mxCell id="8LaYWBTpPzUXE6OAJdE9-73" value="PULL" style="text;html=1;strokeColor=none;fillColor=none;align=center;verticalAlign=middle;whiteSpace=wrap;rounded=0;dashed=1;" parent="1" vertex="1">
          <mxGeometry x="53" y="480" width="80" height="20" as="geometry"/>
        </mxCell>
        <mxCell id="8LaYWBTpPzUXE6OAJdE9-75" style="edgeStyle=orthogonalEdgeStyle;rounded=0;orthogonalLoop=1;jettySize=auto;html=1;exitX=1;exitY=0.75;exitDx=0;exitDy=0;entryX=0;entryY=0.75;entryDx=0;entryDy=0;" parent="1" source="8LaYWBTpPzUXE6OAJdE9-74" target="8LaYWBTpPzUXE6OAJdE9-9" edge="1">
          <mxGeometry relative="1" as="geometry"/>
        </mxCell>
        <mxCell id="8LaYWBTpPzUXE6OAJdE9-78" value="PUSH" style="text;html=1;resizable=0;points=[];align=center;verticalAlign=middle;labelBackgroundColor=#ffffff;" parent="8LaYWBTpPzUXE6OAJdE9-75" vertex="1" connectable="0">
          <mxGeometry x="-0.424" relative="1" as="geometry">
            <mxPoint as="offset"/>
          </mxGeometry>
        </mxCell>
        <mxCell id="8LaYWBTpPzUXE6OAJdE9-74" value="Frontier" style="rounded=1;whiteSpace=wrap;html=1;fillColor=#fff2cc;strokeColor=#d6b656;" parent="1" vertex="1">
          <mxGeometry x="-27" y="150" width="80" height="40" as="geometry"/>
        </mxCell>
        <mxCell id="OoqCZXZGzTTgk1bZP4qL-3" value="Mutex Lock" style="text;html=1;strokeColor=none;fillColor=none;align=center;verticalAlign=middle;whiteSpace=wrap;rounded=0;" parent="1" vertex="1">
          <mxGeometry x="290.5" y="365" width="60" height="20" as="geometry"/>
        </mxCell>
      </root>
    </mxGraphModel>
  </diagram>
</mxfile>
